<?xml version="1.0" standalone="no"?>
<!DOCTYPE svg PUBLIC "-//W3C//DTD SVG 20010904//EN"
 "http://www.w3.org/TR/2001/REC-SVG-20010904/DTD/svg10.dtd">
<svg version="1.0" xmlns="http://www.w3.org/2000/svg"
 width="200.000000pt" height="84.000000pt" viewBox="0 0 200.000000 84.000000"
 preserveAspectRatio="xMidYMid meet">

<g transform="translate(0.000000,84.000000) scale(0.100000,-0.100000)"
fill="#000000" stroke="none">
<path d="M135 646 c-8 -19 -19 -37 -25 -41 -14 -9 -13 -62 2 -67 8 -3 13 -41
14 -121 2 -64 6 -122 9 -127 4 -6 62 -10 141 -10 l134 0 0 -39 c0 -56 -13 -62
-131 -59 l-102 3 -13 40 -12 40 -1 -36 c-2 -59 19 -69 135 -69 65 0 106 4 116
12 16 13 56 224 44 235 -11 11 -16 -3 -23 -56 l-6 -51 -132 0 -132 0 -7 53
c-3 28 -6 67 -6 85 l0 32 145 0 c138 0 145 -1 145 -20 0 -11 5 -20 10 -20 6 0
9 22 8 52 -2 33 2 53 10 56 15 5 16 58 2 75 -6 7 -16 20 -23 29 -9 14 -34 19
-119 24 -79 5 -108 4 -108 -5 0 -7 20 -11 53 -11 75 0 157 -11 157 -21 0 -5
-61 -9 -136 -9 -120 0 -135 2 -130 16 3 9 6 18 6 20 0 2 7 4 16 4 8 0 12 5 9
10 -13 20 -36 9 -50 -24z m312 -71 c0 -12 -29 -15 -164 -17 -150 -3 -163 -2
-163 15 0 15 14 17 163 17 137 0 164 -2 164 -15z m-17 -66 c0 -18 -8 -19 -145
-19 -134 0 -145 1 -145 18 0 10 2 21 4 23 2 2 68 3 145 1 132 -3 141 -4 141
-23z"/>
<path d="M1001 499 c-34 -14 -50 -39 -51 -80 0 -36 25 -69 62 -82 22 -8 80 12
76 25 -4 10 -10 10 -46 1 -14 -3 -30 1 -42 12 -43 39 -9 114 45 101 35 -9 39
-9 43 2 2 7 -55 36 -62 31 -1 0 -12 -5 -25 -10z"/>
<path d="M1153 500 c-44 -18 -44 -85 0 -110 24 -13 30 -13 55 0 68 38 17 139
-55 110z m51 -36 c20 -19 5 -54 -24 -54 -29 0 -44 35 -24 54 8 9 19 16 24 16
5 0 16 -7 24 -16z"/>
<path d="M580 420 c0 -64 3 -80 15 -80 10 0 15 11 15 35 0 33 2 35 35 35 19 0
35 5 35 10 0 6 -16 10 -35 10 -31 0 -35 3 -35 25 0 23 4 25 40 25 22 0 40 5
40 10 0 6 -25 10 -55 10 l-55 0 0 -80z"/>
<path d="M742 458 c-42 -54 -41 -68 3 -68 31 0 35 -3 35 -25 0 -16 6 -25 15
-25 12 0 15 16 15 80 0 70 -2 80 -18 80 -10 0 -32 -19 -50 -42z m38 -28 c0
-13 -7 -20 -20 -20 -18 0 -19 2 -8 20 7 11 16 20 20 20 5 0 8 -9 8 -20z"/>
<path d="M1280 420 c0 -64 3 -80 15 -80 10 0 15 11 15 35 0 33 2 35 35 35 19
0 35 5 35 10 0 6 -16 10 -35 10 -31 0 -35 3 -35 25 0 23 4 25 40 25 22 0 40 5
40 10 0 6 -25 10 -55 10 l-55 0 0 -80z"/>
<path d="M1420 420 c0 -64 3 -80 15 -80 10 0 15 11 15 35 0 33 2 35 35 35 19
0 35 5 35 10 0 6 -16 10 -35 10 -31 0 -35 3 -35 25 0 23 4 25 40 25 22 0 40 5
40 10 0 6 -25 10 -55 10 l-55 0 0 -80z"/>
<path d="M1560 420 l0 -80 55 0 c30 0 55 5 55 10 0 6 -18 10 -40 10 -36 0 -40
3 -40 25 0 22 4 25 35 25 19 0 35 5 35 10 0 6 -16 10 -35 10 -31 0 -35 3 -35
25 0 23 4 25 40 25 22 0 40 5 40 10 0 6 -25 10 -55 10 l-55 0 0 -80z"/>
<path d="M1700 420 l0 -80 60 0 c68 0 82 17 18 22 -35 2 -43 7 -43 23 0 15 8
21 33 23 17 2 32 7 32 12 0 5 -15 10 -32 12 -25 2 -33 8 -33 23 0 16 8 21 43
23 64 5 50 22 -18 22 l-60 0 0 -80z"/>
<path d="M252 428 c-20 -20 -15 -75 9 -92 45 -31 96 24 71 79 -13 27 -58 35
-80 13z m51 -28 c3 -11 1 -18 -4 -14 -5 3 -9 12 -9 20 0 20 7 17 13 -6z m-24
-38 c1 -7 -3 -10 -9 -7 -5 3 -10 18 -9 33 0 24 1 25 9 7 5 -11 9 -26 9 -33z"/>
<path d="M840 420 c0 -5 18 -10 40 -10 22 0 40 5 40 10 0 6 -18 10 -40 10 -22
0 -40 -4 -40 -10z"/>
<path d="M1120 350 c0 -6 27 -10 60 -10 33 0 60 4 60 10 0 6 -27 10 -60 10
-33 0 -60 -4 -60 -10z"/>
</g>
</svg>
